# xmcd CD database file
# Copyright (C) 1993-1998 Ti Kan
#
# Track frame offsets:
#  182
#  24295
#  45060
#  60552
#  75665
#  88785
#  101970
#  115897
#  131282
#  148095
#  164127
#  179355
#  188077
#
# Disc length: 2678 seconds
#
# Revision: 1
# Processed by: cddbd v1.4b41PL1 Copyright (c) Steve Scherf et al.
# Submitted via: CDWizzard Release:4.32
#
DISCID=a80a740d
DTITLE=Nitty Gritty Dirt Band - All The Good Times
DYEAR=1900
DGENRE=
TTITLE0=Sixteen Tracks
TTITLE1=Fish Song
TTITLE2=Jambalaya (On The Bayou)
TTITLE3=Down In Texas
TTITLE4=Creepin' Round Your Back Door
TTITLE5=Daisy
TTITLE6=Slim Carter
TTITLE7=Hoping To Say
TTITLE8=Baltimore
TTITLE9=Jamiaca, Say You Will
TTITLE10=Do You Feel It Too
TTITLE11=Civil War Trilogy
TTITLE12=Diggy Liggy Lo
EXTD=
EXTT0=
EXTT1=
EXTT2=
EXTT3=
EXTT4=
EXTT5=
EXTT6=
EXTT7=
EXTT8=
EXTT9=
EXTT10=
EXTT11=
EXTT12=
PLAYORDER=
